<svg xmlns="http://www.w3.org/2000/svg" xmlns:xlink="http://www.w3.org/1999/xlink" width="1640" zoomAndPan="magnify" viewBox="0 0 1230 693.000001" height="924" preserveAspectRatio="xMidYMid meet" version="1.0"><defs><g/><clipPath id="51a3761b60"><path d="M 244 242 L 388 242 L 388 477.695312 L 244 477.695312 Z M 244 242 " clip-rule="nonzero"/></clipPath><clipPath id="ed45bef0ee"><path d="M 619 6.625 L 913 6.625 L 913 477.695312 L 619 477.695312 Z M 619 6.625 " clip-rule="nonzero"/></clipPath><clipPath id="ed8e285564"><path d="M 366 6.625 L 661 6.625 L 661 477.695312 L 366 477.695312 Z M 366 6.625 " clip-rule="nonzero"/></clipPath></defs><g clip-path="url(#51a3761b60)"><path fill="#5842ed" d="M 256.285156 396.921875 L 311 477.65625 L 319.308594 477.65625 L 375.460938 397.960938 C 376.433594 396.578125 377.351562 395.164062 378.21875 393.710938 C 379.082031 392.261719 379.890625 390.78125 380.640625 389.265625 C 381.394531 387.753906 382.085938 386.214844 382.71875 384.648438 C 383.351562 383.082031 383.921875 381.492188 384.433594 379.882812 C 384.945312 378.273438 385.394531 376.648438 385.777344 375.003906 C 386.164062 373.359375 386.488281 371.699219 386.746094 370.03125 C 387.003906 368.363281 387.199219 366.683594 387.328125 365 C 387.457031 363.316406 387.523438 361.628906 387.523438 359.941406 C 387.523438 358.25 387.457031 356.566406 387.328125 354.882812 C 387.199219 353.195312 387.003906 351.519531 386.746094 349.851562 C 386.488281 348.179688 386.164062 346.523438 385.777344 344.878906 C 385.394531 343.234375 384.945312 341.609375 384.433594 339.996094 C 383.921875 338.386719 383.351562 336.800781 382.71875 335.234375 C 382.085938 333.667969 381.394531 332.128906 380.640625 330.613281 C 379.890625 329.101562 379.082031 327.621094 378.21875 326.167969 C 377.351562 324.71875 376.433594 323.304688 375.460938 321.921875 L 319.308594 242.226562 L 311.148438 242.226562 L 256.433594 322.863281 C 255.503906 324.214844 254.625 325.597656 253.800781 327.015625 C 252.976562 328.433594 252.203125 329.878906 251.488281 331.355469 C 250.769531 332.832031 250.109375 334.332031 249.507812 335.855469 C 248.902344 337.382812 248.355469 338.925781 247.867188 340.492188 C 247.378906 342.058594 246.949219 343.640625 246.582031 345.238281 C 246.210938 346.839844 245.902344 348.449219 245.65625 350.070312 C 245.40625 351.691406 245.21875 353.320312 245.09375 354.953125 C 244.964844 356.589844 244.902344 358.226562 244.898438 359.867188 C 244.894531 361.507812 244.953125 363.148438 245.074219 364.78125 C 245.191406 366.417969 245.375 368.046875 245.617188 369.671875 C 245.855469 371.292969 246.160156 372.902344 246.523438 374.503906 C 246.886719 376.105469 247.308594 377.6875 247.789062 379.253906 C 248.273438 380.824219 248.8125 382.371094 249.410156 383.898438 C 250.007812 385.425781 250.664062 386.929688 251.375 388.40625 C 252.085938 389.886719 252.847656 391.335938 253.667969 392.757812 C 254.488281 394.175781 255.359375 395.566406 256.285156 396.921875 Z M 256.285156 396.921875 " fill-opacity="1" fill-rule="nonzero"/></g><g clip-path="url(#ed45bef0ee)"><path fill="#5842ed" d="M 843.355469 477.65625 L 851.464844 477.65625 L 895.25 415.71875 C 896.671875 413.691406 898.019531 411.613281 899.285156 409.480469 C 900.550781 407.351562 901.730469 405.175781 902.832031 402.953125 C 903.929688 400.730469 904.941406 398.472656 905.867188 396.171875 C 906.792969 393.875 907.628906 391.542969 908.378906 389.179688 C 909.125 386.816406 909.78125 384.429688 910.34375 382.015625 C 910.910156 379.601562 911.378906 377.171875 911.757812 374.722656 C 912.136719 372.273438 912.417969 369.8125 912.609375 367.339844 C 912.796875 364.871094 912.894531 362.394531 912.894531 359.917969 C 912.894531 357.4375 912.796875 354.964844 912.609375 352.492188 C 912.417969 350.019531 912.136719 347.5625 911.757812 345.113281 C 911.378906 342.664062 910.910156 340.230469 910.34375 337.816406 C 909.78125 335.402344 909.125 333.015625 908.378906 330.652344 C 907.628906 328.289062 906.792969 325.960938 905.867188 323.660156 C 904.941406 321.359375 903.929688 319.101562 902.832031 316.878906 C 901.730469 314.660156 900.550781 312.480469 899.285156 310.351562 C 898.019531 308.21875 896.671875 306.140625 895.25 304.113281 L 686.285156 6.941406 L 678.121094 6.941406 L 635.625 69.621094 C 634.273438 71.636719 632.996094 73.695312 631.796875 75.804688 C 630.601562 77.914062 629.480469 80.0625 628.441406 82.253906 C 627.40625 84.449219 626.449219 86.675781 625.578125 88.9375 C 624.707031 91.203125 623.917969 93.496094 623.21875 95.816406 C 622.519531 98.140625 621.90625 100.484375 621.378906 102.851562 C 620.851562 105.21875 620.417969 107.605469 620.070312 110.003906 C 619.722656 112.40625 619.464844 114.816406 619.296875 117.234375 C 619.128906 119.652344 619.050781 122.078125 619.0625 124.503906 C 619.078125 126.929688 619.179688 129.347656 619.375 131.765625 C 619.566406 134.183594 619.851562 136.59375 620.226562 138.988281 C 620.597656 141.386719 621.0625 143.765625 621.613281 146.125 C 622.164062 148.488281 622.804688 150.828125 623.527344 153.140625 C 624.253906 155.457031 625.066406 157.738281 625.960938 159.992188 C 626.859375 162.246094 627.839844 164.464844 628.898438 166.644531 C 629.960938 168.824219 631.105469 170.964844 632.324219 173.058594 C 633.546875 175.15625 634.84375 177.203125 636.21875 179.199219 Z M 843.355469 477.65625 " fill-opacity="1" fill-rule="nonzero"/></g><g clip-path="url(#ed8e285564)"><path fill="#5842ed" d="M 591.054688 477.65625 L 599.167969 477.65625 L 642.949219 415.71875 C 644.371094 413.691406 645.71875 411.613281 646.984375 409.480469 C 648.25 407.351562 649.429688 405.175781 650.53125 402.953125 C 651.628906 400.730469 652.640625 398.472656 653.566406 396.171875 C 654.492188 393.875 655.328125 391.542969 656.078125 389.179688 C 656.824219 386.816406 657.480469 384.429688 658.042969 382.015625 C 658.609375 379.601562 659.078125 377.171875 659.457031 374.722656 C 659.835938 372.273438 660.117188 369.8125 660.308594 367.339844 C 660.496094 364.871094 660.59375 362.394531 660.59375 359.917969 C 660.59375 357.4375 660.496094 354.964844 660.308594 352.492188 C 660.117188 350.019531 659.835938 347.5625 659.457031 345.113281 C 659.078125 342.664062 658.609375 340.230469 658.042969 337.816406 C 657.480469 335.402344 656.824219 333.015625 656.078125 330.652344 C 655.328125 328.289062 654.492188 325.960938 653.566406 323.660156 C 652.640625 321.359375 651.628906 319.101562 650.53125 316.878906 C 649.429688 314.660156 648.25 312.480469 646.984375 310.351562 C 645.71875 308.21875 644.371094 306.140625 642.949219 304.113281 L 433.984375 6.941406 L 425.820312 6.941406 L 383.324219 69.621094 C 381.972656 71.636719 380.695312 73.695312 379.5 75.804688 C 378.300781 77.914062 377.179688 80.0625 376.140625 82.253906 C 375.105469 84.449219 374.148438 86.675781 373.277344 88.9375 C 372.40625 91.203125 371.617188 93.496094 370.917969 95.816406 C 370.21875 98.140625 369.605469 100.484375 369.078125 102.851562 C 368.550781 105.21875 368.117188 107.605469 367.769531 110.003906 C 367.421875 112.40625 367.164062 114.816406 366.996094 117.234375 C 366.828125 119.652344 366.75 122.078125 366.761719 124.503906 C 366.777344 126.929688 366.878906 129.347656 367.074219 131.765625 C 367.269531 134.183594 367.550781 136.59375 367.925781 138.988281 C 368.300781 141.386719 368.761719 143.765625 369.3125 146.125 C 369.863281 148.488281 370.503906 150.828125 371.230469 153.140625 C 371.953125 155.457031 372.765625 157.738281 373.660156 159.992188 C 374.558594 162.246094 375.539062 164.464844 376.601562 166.644531 C 377.660156 168.824219 378.804688 170.964844 380.023438 173.058594 C 381.246094 175.15625 382.542969 177.203125 383.917969 179.199219 Z M 591.054688 477.65625 " fill-opacity="1" fill-rule="nonzero"/></g><g fill="#000000" fill-opacity="1"><g transform="translate(374.109914, 537.36443)"><g><path d="M 99.078125 -85.28125 C 99.722656 -84.070312 100.101562 -82.984375 100.21875 -82.015625 C 100.34375 -81.046875 100.40625 -79.632812 100.40625 -77.78125 L 100.40625 -10.640625 C 100.40625 -5.078125 98.875 -1.8125 95.8125 -0.84375 C 94.28125 -0.363281 92.34375 -0.125 90 -0.125 C 87.664062 -0.125 85.8125 -0.320312 84.4375 -0.71875 C 83.0625 -1.125 82.007812 -1.609375 81.28125 -2.171875 C 80.5625 -2.742188 80 -3.550781 79.59375 -4.59375 C 79.195312 -5.96875 79 -8.066406 79 -10.890625 L 79 -51.40625 C 76.976562 -48.90625 74.03125 -44.929688 70.15625 -39.484375 C 66.289062 -34.046875 63.832031 -30.640625 62.78125 -29.265625 C 61.726562 -27.898438 61 -26.953125 60.59375 -26.421875 C 60.195312 -25.898438 59.210938 -25.175781 57.640625 -24.25 C 56.066406 -23.320312 54.375 -22.859375 52.5625 -22.859375 C 50.75 -22.859375 49.09375 -23.28125 47.59375 -24.125 C 46.101562 -24.976562 45.035156 -25.804688 44.390625 -26.609375 L 43.421875 -27.9375 C 41.816406 -29.957031 38.632812 -34.253906 33.875 -40.828125 C 29.113281 -47.398438 26.53125 -50.925781 26.125 -51.40625 L 26.125 -10.640625 C 26.125 -8.785156 26.0625 -7.394531 25.9375 -6.46875 C 25.820312 -5.539062 25.441406 -4.515625 24.796875 -3.390625 C 23.585938 -1.210938 20.441406 -0.125 15.359375 -0.125 C 10.441406 -0.125 7.378906 -1.210938 6.171875 -3.390625 C 5.523438 -4.515625 5.140625 -5.5625 5.015625 -6.53125 C 4.898438 -7.5 4.84375 -8.953125 4.84375 -10.890625 L 4.84375 -78.03125 C 4.84375 -79.882812 4.898438 -81.273438 5.015625 -82.203125 C 5.140625 -83.128906 5.523438 -84.195312 6.171875 -85.40625 C 7.378906 -87.5 10.523438 -88.546875 15.609375 -88.546875 C 17.785156 -88.546875 19.660156 -88.285156 21.234375 -87.765625 C 22.804688 -87.242188 23.832031 -86.695312 24.3125 -86.125 L 25.046875 -85.40625 L 52.5 -49.359375 C 66.207031 -67.503906 75.359375 -79.476562 79.953125 -85.28125 C 81.328125 -87.457031 84.570312 -88.546875 89.6875 -88.546875 C 94.8125 -88.546875 97.941406 -87.457031 99.078125 -85.28125 Z M 99.078125 -85.28125 "/></g></g></g><g fill="#000000" fill-opacity="1"><g transform="translate(481.166481, 537.36443)"><g><path d="M 75.25 -86.984375 C 79.195312 -84.234375 81.171875 -81.570312 81.171875 -79 C 81.171875 -77.457031 80.242188 -75.316406 78.390625 -72.578125 L 52.265625 -33.515625 L 52.265625 -10.40625 C 52.265625 -8.550781 52.203125 -7.160156 52.078125 -6.234375 C 51.953125 -5.304688 51.566406 -4.234375 50.921875 -3.015625 C 50.273438 -1.804688 49.1875 -0.960938 47.65625 -0.484375 C 46.125 -0.00390625 44.066406 0.234375 41.484375 0.234375 C 38.910156 0.234375 36.859375 -0.00390625 35.328125 -0.484375 C 33.796875 -0.960938 32.707031 -1.828125 32.0625 -3.078125 C 31.414062 -4.328125 31.03125 -5.414062 30.90625 -6.34375 C 30.78125 -7.269531 30.71875 -8.703125 30.71875 -10.640625 L 30.71875 -33.515625 L 4.59375 -72.578125 C 2.738281 -75.316406 1.8125 -77.457031 1.8125 -79 C 1.8125 -81.570312 3.582031 -84.046875 7.125 -86.421875 C 10.675781 -88.804688 13.21875 -90 14.75 -90 C 16.289062 -90 17.503906 -89.675781 18.390625 -89.03125 C 19.753906 -88.144531 21.203125 -86.492188 22.734375 -84.078125 L 41.5 -54.078125 L 60.25 -84.078125 C 61.78125 -86.492188 63.109375 -88.082031 64.234375 -88.84375 C 65.359375 -89.613281 66.664062 -90 68.15625 -90 C 69.65625 -90 72.019531 -88.992188 75.25 -86.984375 Z M 75.25 -86.984375 "/></g></g></g><g fill="#000000" fill-opacity="1"><g transform="translate(374.109914, 643.211269)"><g><path d="M 10.640625 -88.796875 L 77.90625 -88.796875 C 80.488281 -88.796875 82.382812 -88.492188 83.59375 -87.890625 C 84.800781 -87.285156 85.601562 -86.335938 86 -85.046875 C 86.40625 -83.753906 86.609375 -82.054688 86.609375 -79.953125 C 86.609375 -77.859375 86.40625 -76.1875 86 -74.9375 C 85.601562 -73.6875 84.921875 -72.820312 83.953125 -72.34375 C 82.503906 -71.613281 80.445312 -71.25 77.78125 -71.25 L 54.671875 -71.25 L 54.671875 -10.40625 C 54.671875 -8.550781 54.609375 -7.175781 54.484375 -6.28125 C 54.367188 -5.394531 54.007812 -4.367188 53.40625 -3.203125 C 52.800781 -2.035156 51.734375 -1.207031 50.203125 -0.71875 C 48.671875 -0.238281 46.65625 0 44.15625 0 C 41.65625 0 39.65625 -0.238281 38.15625 -0.71875 C 36.664062 -1.207031 35.617188 -2.035156 35.015625 -3.203125 C 34.410156 -4.367188 34.046875 -5.414062 33.921875 -6.34375 C 33.804688 -7.269531 33.75 -8.664062 33.75 -10.53125 L 33.75 -71.25 L 10.53125 -71.25 C 7.945312 -71.25 6.050781 -71.550781 4.84375 -72.15625 C 3.632812 -72.757812 2.828125 -73.707031 2.421875 -75 C 2.015625 -76.289062 1.8125 -77.984375 1.8125 -80.078125 C 1.8125 -82.171875 2.015625 -83.84375 2.421875 -85.09375 C 2.828125 -86.351562 3.507812 -87.222656 4.46875 -87.703125 C 5.925781 -88.429688 7.984375 -88.796875 10.640625 -88.796875 Z M 10.640625 -88.796875 "/></g></g></g><g fill="#000000" fill-opacity="1"><g transform="translate(464.351956, 643.211269)"><g><path d="M 4.84375 -78.03125 C 4.84375 -79.882812 4.898438 -81.273438 5.015625 -82.203125 C 5.140625 -83.128906 5.523438 -84.195312 6.171875 -85.40625 C 7.296875 -87.582031 10.441406 -88.671875 15.609375 -88.671875 C 21.253906 -88.671875 24.597656 -87.175781 25.640625 -84.1875 C 26.046875 -82.820312 26.25 -80.726562 26.25 -77.90625 L 26.25 -10.640625 C 26.25 -8.703125 26.1875 -7.289062 26.0625 -6.40625 C 25.945312 -5.519531 25.566406 -4.472656 24.921875 -3.265625 C 23.785156 -1.085938 20.640625 0 15.484375 0 C 9.835938 0 6.53125 -1.53125 5.5625 -4.59375 C 5.082031 -5.882812 4.84375 -7.941406 4.84375 -10.765625 Z M 4.84375 -78.03125 "/></g></g></g><g fill="#000000" fill-opacity="1"><g transform="translate(497.255222, 643.211269)"><g><path d="M 60.25 -23.21875 L 62.421875 -24.796875 C 65.160156 -26.410156 67.09375 -27.21875 68.21875 -27.21875 C 70.71875 -27.21875 73.421875 -24.957031 76.328125 -20.4375 C 78.109375 -17.613281 79 -15.351562 79 -13.65625 C 79 -11.96875 78.453125 -10.554688 77.359375 -9.421875 C 76.265625 -8.296875 74.992188 -7.289062 73.546875 -6.40625 C 72.097656 -5.519531 70.707031 -4.671875 69.375 -3.859375 C 68.039062 -3.054688 65.316406 -2.007812 61.203125 -0.71875 C 57.097656 0.5625 53.128906 1.203125 49.296875 1.203125 C 45.460938 1.203125 41.585938 0.703125 37.671875 -0.296875 C 33.765625 -1.304688 29.734375 -3 25.578125 -5.375 C 21.429688 -7.757812 17.703125 -10.664062 14.390625 -14.09375 C 11.085938 -17.519531 8.367188 -21.914062 6.234375 -27.28125 C 4.097656 -32.644531 3.03125 -38.46875 3.03125 -44.75 C 3.03125 -51.039062 4.078125 -56.75 6.171875 -61.875 C 8.265625 -67 10.941406 -71.234375 14.203125 -74.578125 C 17.472656 -77.921875 21.207031 -80.722656 25.40625 -82.984375 C 33.3125 -87.335938 41.253906 -89.515625 49.234375 -89.515625 C 53.023438 -89.515625 56.875 -88.929688 60.78125 -87.765625 C 64.695312 -86.597656 67.660156 -85.40625 69.671875 -84.1875 L 72.578125 -82.5 C 74.035156 -81.613281 75.164062 -80.890625 75.96875 -80.328125 C 78.0625 -78.628906 79.109375 -76.710938 79.109375 -74.578125 C 79.109375 -72.441406 78.265625 -70.203125 76.578125 -67.859375 C 73.429688 -63.503906 70.609375 -61.328125 68.109375 -61.328125 C 66.648438 -61.328125 64.59375 -62.21875 61.9375 -64 C 58.550781 -66.738281 54.035156 -68.109375 48.390625 -68.109375 C 43.148438 -68.109375 37.988281 -66.289062 32.90625 -62.65625 C 30.488281 -60.882812 28.472656 -58.382812 26.859375 -55.15625 C 25.242188 -51.9375 24.4375 -48.289062 24.4375 -44.21875 C 24.4375 -40.144531 25.242188 -36.492188 26.859375 -33.265625 C 28.472656 -30.035156 30.53125 -27.492188 33.03125 -25.640625 C 37.945312 -22.097656 43.066406 -20.328125 48.390625 -20.328125 C 50.890625 -20.328125 53.25 -20.648438 55.46875 -21.296875 C 57.6875 -21.941406 59.28125 -22.582031 60.25 -23.21875 Z M 60.25 -23.21875 "/></g></g></g><g fill="#000000" fill-opacity="1"><g transform="translate(581.206939, 643.211269)"><g><path d="M 42.828125 -44.515625 C 55.160156 -32.660156 63.910156 -23.75 69.078125 -17.78125 C 71.734375 -14.800781 73.0625 -12.28125 73.0625 -10.21875 C 73.0625 -8.164062 71.445312 -5.75 68.21875 -2.96875 C 65 -0.1875 62.359375 1.203125 60.296875 1.203125 C 58.242188 1.203125 55.765625 -0.488281 52.859375 -3.875 L 26.25 -34.234375 L 26.25 -10.640625 C 26.25 -8.703125 26.1875 -7.289062 26.0625 -6.40625 C 25.945312 -5.519531 25.566406 -4.472656 24.921875 -3.265625 C 23.785156 -1.085938 20.640625 0 15.484375 0 C 9.835938 0 6.53125 -1.53125 5.5625 -4.59375 C 5.082031 -5.882812 4.84375 -7.941406 4.84375 -10.765625 L 4.84375 -78.03125 C 4.84375 -79.882812 4.898438 -81.273438 5.015625 -82.203125 C 5.140625 -83.128906 5.523438 -84.195312 6.171875 -85.40625 C 7.296875 -87.582031 10.441406 -88.671875 15.609375 -88.671875 C 21.253906 -88.671875 24.597656 -87.175781 25.640625 -84.1875 C 26.046875 -82.820312 26.25 -80.726562 26.25 -77.90625 L 26.25 -54.796875 C 37.21875 -67.140625 46.085938 -77.257812 52.859375 -85.15625 C 55.679688 -88.46875 58.140625 -90.125 60.234375 -90.125 C 62.335938 -90.125 65 -88.734375 68.21875 -85.953125 C 71.445312 -83.171875 73.0625 -80.75 73.0625 -78.6875 C 73.0625 -76.632812 71.851562 -74.195312 69.4375 -71.375 C 64.757812 -65.96875 57.5 -58.546875 47.65625 -49.109375 Z M 42.828125 -44.515625 "/></g></g></g><g fill="#000000" fill-opacity="1"><g transform="translate(660.319924, 643.211269)"><g><path d="M 26.25 -21.40625 L 63.515625 -21.40625 C 65.367188 -21.40625 66.757812 -21.34375 67.6875 -21.21875 C 68.613281 -21.101562 69.679688 -20.722656 70.890625 -20.078125 C 73.066406 -18.953125 74.15625 -15.804688 74.15625 -10.640625 C 74.15625 -4.992188 72.660156 -1.6875 69.671875 -0.71875 C 68.304688 -0.238281 66.210938 0 63.390625 0 L 15.484375 0 C 9.835938 0 6.53125 -1.53125 5.5625 -4.59375 C 5.082031 -5.882812 4.84375 -7.941406 4.84375 -10.765625 L 4.84375 -78.03125 C 4.84375 -82.132812 5.609375 -84.929688 7.140625 -86.421875 C 8.671875 -87.921875 11.570312 -88.671875 15.84375 -88.671875 L 63.515625 -88.671875 C 65.367188 -88.671875 66.757812 -88.609375 67.6875 -88.484375 C 68.613281 -88.367188 69.679688 -87.988281 70.890625 -87.34375 C 73.066406 -86.207031 74.15625 -83.0625 74.15625 -77.90625 C 74.15625 -72.257812 72.660156 -68.953125 69.671875 -67.984375 C 68.304688 -67.503906 66.210938 -67.265625 63.390625 -67.265625 L 26.25 -67.265625 L 26.25 -55.046875 L 50.203125 -55.046875 C 52.054688 -55.046875 53.445312 -54.984375 54.375 -54.859375 C 55.300781 -54.734375 56.367188 -54.347656 57.578125 -53.703125 C 59.753906 -52.578125 60.84375 -49.4375 60.84375 -44.28125 C 60.84375 -38.632812 59.3125 -35.328125 56.25 -34.359375 C 54.875 -33.867188 52.773438 -33.625 49.953125 -33.625 L 26.25 -33.625 Z M 26.25 -21.40625 "/></g></g></g><g fill="#000000" fill-opacity="1"><g transform="translate(739.311939, 643.211269)"><g><path d="M 10.640625 -88.796875 L 77.90625 -88.796875 C 80.488281 -88.796875 82.382812 -88.492188 83.59375 -87.890625 C 84.800781 -87.285156 85.601562 -86.335938 86 -85.046875 C 86.40625 -83.753906 86.609375 -82.054688 86.609375 -79.953125 C 86.609375 -77.859375 86.40625 -76.1875 86 -74.9375 C 85.601562 -73.6875 84.921875 -72.820312 83.953125 -72.34375 C 82.503906 -71.613281 80.445312 -71.25 77.78125 -71.25 L 54.671875 -71.25 L 54.671875 -10.40625 C 54.671875 -8.550781 54.609375 -7.175781 54.484375 -6.28125 C 54.367188 -5.394531 54.007812 -4.367188 53.40625 -3.203125 C 52.800781 -2.035156 51.734375 -1.207031 50.203125 -0.71875 C 48.671875 -0.238281 46.65625 0 44.15625 0 C 41.65625 0 39.65625 -0.238281 38.15625 -0.71875 C 36.664062 -1.207031 35.617188 -2.035156 35.015625 -3.203125 C 34.410156 -4.367188 34.046875 -5.414062 33.921875 -6.34375 C 33.804688 -7.269531 33.75 -8.664062 33.75 -10.53125 L 33.75 -71.25 L 10.53125 -71.25 C 7.945312 -71.25 6.050781 -71.550781 4.84375 -72.15625 C 3.632812 -72.757812 2.828125 -73.707031 2.421875 -75 C 2.015625 -76.289062 1.8125 -77.984375 1.8125 -80.078125 C 1.8125 -82.171875 2.015625 -83.84375 2.421875 -85.09375 C 2.828125 -86.351562 3.507812 -87.222656 4.46875 -87.703125 C 5.925781 -88.429688 7.984375 -88.796875 10.640625 -88.796875 Z M 10.640625 -88.796875 "/></g></g></g><g fill="#000000" fill-opacity="1"><g transform="translate(580.026451, 679.490016)"><g><path d="M 13.796875 -5.785156 C 13.09375 -4.28125 11.394531 -3.253906 9.640625 -3.253906 C 6.886719 -3.253906 4.683594 -5.609375 4.683594 -8.511719 C 4.683594 -11.394531 6.886719 -13.773438 9.640625 -13.773438 C 11.367188 -13.773438 13.070312 -12.820312 13.773438 -11.292969 L 17.953125 -11.292969 C 16.800781 -14.773438 13.519531 -17.277344 9.640625 -17.277344 C 4.808594 -17.277344 0.875 -13.347656 0.875 -8.511719 C 0.875 -3.679688 4.808594 0.25 9.640625 0.25 C 13.519531 0.25 16.828125 -2.277344 17.976562 -5.785156 Z M 13.796875 -5.785156 "/></g></g></g><g fill="#000000" fill-opacity="1"><g transform="translate(603.638744, 679.490016)"><g><path d="M 14.648438 -8.539062 C 14.648438 -5.910156 12.269531 -3.503906 9.640625 -3.503906 C 7.011719 -3.503906 4.632812 -5.910156 4.632812 -8.539062 C 4.632812 -11.167969 7.011719 -13.546875 9.640625 -13.546875 C 12.269531 -13.546875 14.648438 -11.167969 14.648438 -8.539062 Z M 18.402344 -8.511719 C 18.402344 -13.222656 14.347656 -17.277344 9.640625 -17.277344 C 4.933594 -17.277344 0.875 -13.222656 0.875 -8.511719 C 0.875 -3.804688 4.933594 0.25 9.640625 0.25 C 14.347656 0.25 18.402344 -3.804688 18.402344 -8.511719 Z M 18.402344 -8.511719 "/></g></g></g><g fill="#000000" fill-opacity="1"><g transform="translate(627.927103, 679.490016)"><g><path d="M 22.734375 0 L 19.429688 -17.027344 L 14.972656 -17.027344 L 11.441406 -5.082031 L 7.886719 -17.027344 L 3.429688 -17.027344 L 0.125 0 L 4.257812 0 L 6.261719 -11.742188 L 9.589844 0 L 13.269531 0 L 16.601562 -11.742188 L 18.605469 0 Z M 22.734375 0 "/></g></g></g><g fill="#000000" fill-opacity="1"><g transform="translate(655.796126, 679.490016)"><g><path d="M 5.257812 0 L 5.257812 -17.027344 L 1.503906 -17.027344 L 1.503906 0 Z M 5.257812 0 "/></g></g></g><g fill="#000000" fill-opacity="1"><g transform="translate(667.564708, 679.490016)"><g><path d="M 14.875 0 L 14.875 -17.027344 L 11.117188 -17.027344 L 11.117188 -6.410156 L 5.257812 -17.027344 L 1.503906 -17.027344 L 1.503906 0 L 5.257812 0 L 5.257812 -10.617188 L 11.117188 0 Z M 14.875 0 "/></g></g></g><g fill="#000000" fill-opacity="1"><g transform="translate(688.948481, 679.490016)"><g><path d="M 10.015625 -13.773438 C 11.667969 -13.773438 13.371094 -13.09375 14.199219 -11.292969 L 18.328125 -11.292969 C 17.152344 -14.824219 13.773438 -17.277344 10.015625 -17.277344 C 5.207031 -17.277344 1.253906 -13.320312 1.253906 -8.511719 C 1.253906 -3.707031 5.207031 0.25 10.015625 0.25 C 14.875 0.25 18.753906 -3.679688 18.753906 -8.511719 L 18.753906 -9.089844 L 10.367188 -9.089844 L 10.367188 -6.261719 L 14.699219 -6.261719 C 13.773438 -3.679688 11.667969 -3.15625 10.015625 -3.15625 C 7.3125 -3.15625 5.058594 -5.582031 5.058594 -8.464844 C 5.058594 -11.34375 7.3125 -13.773438 10.015625 -13.773438 Z M 10.015625 -13.773438 "/></g></g></g><g fill="#000000" fill-opacity="1"><g transform="translate(713.587398, 679.490016)"><g/></g></g><g fill="#000000" fill-opacity="1"><g transform="translate(724.855185, 679.490016)"><g><path d="M 6.484375 0 L 10.242188 0 L 10.242188 -8.136719 L 16.527344 -17.027344 L 12.042969 -17.027344 L 8.363281 -11.144531 L 4.683594 -17.027344 L 0.199219 -17.027344 L 6.484375 -8.136719 Z M 6.484375 0 "/></g></g></g><g fill="#000000" fill-opacity="1"><g transform="translate(746.589503, 679.490016)"><g><path d="M 14.648438 -8.539062 C 14.648438 -5.910156 12.269531 -3.503906 9.640625 -3.503906 C 7.011719 -3.503906 4.632812 -5.910156 4.632812 -8.539062 C 4.632812 -11.167969 7.011719 -13.546875 9.640625 -13.546875 C 12.269531 -13.546875 14.648438 -11.167969 14.648438 -8.539062 Z M 18.402344 -8.511719 C 18.402344 -13.222656 14.347656 -17.277344 9.640625 -17.277344 C 4.933594 -17.277344 0.875 -13.222656 0.875 -8.511719 C 0.875 -3.804688 4.933594 0.25 9.640625 0.25 C 14.347656 0.25 18.402344 -3.804688 18.402344 -8.511719 Z M 18.402344 -8.511719 "/></g></g></g><g fill="#000000" fill-opacity="1"><g transform="translate(770.877858, 679.490016)"><g><path d="M 11.441406 -17.027344 L 11.441406 -7.1875 C 11.441406 -4.832031 10.742188 -3.503906 8.164062 -3.503906 C 5.609375 -3.503906 4.882812 -4.832031 4.882812 -7.1875 L 4.882812 -17.027344 L 1.125 -17.027344 L 1.125 -6.636719 C 1.125 -2.101562 3.730469 0.25 8.164062 0.25 C 12.59375 0.25 15.199219 -2.101562 15.199219 -6.636719 L 15.199219 -17.027344 Z M 11.441406 -17.027344 "/></g></g></g><g fill="#000000" fill-opacity="1"><g transform="translate(792.211561, 679.490016)"><g><path d="M 5.257812 -6.085938 L 5.285156 -6.085938 L 9.339844 0 L 14.097656 0 L 9.214844 -6.261719 C 11.367188 -6.785156 13.09375 -8.6875 13.09375 -11.566406 C 13.09375 -14.796875 10.640625 -17.027344 7.886719 -17.027344 L 1.503906 -17.027344 L 1.503906 0 L 5.257812 0 Z M 7.261719 -14.070312 C 8.363281 -14.070312 9.515625 -13.121094 9.515625 -11.566406 C 9.515625 -9.941406 8.363281 -9.039062 7.261719 -9.039062 L 5.257812 -9.039062 L 5.257812 -14.070312 Z M 7.261719 -14.070312 "/></g></g></g><g fill="#000000" fill-opacity="1"><g transform="translate(811.016266, 679.490016)"><g/></g></g><g fill="#000000" fill-opacity="1"><g transform="translate(822.284065, 679.490016)"><g><path d="M 22.734375 -17.027344 L 18.605469 -17.027344 L 16.601562 -5.285156 L 13.269531 -17.027344 L 9.589844 -17.027344 L 6.261719 -5.285156 L 4.257812 -17.027344 L 0.125 -17.027344 L 3.429688 0 L 7.886719 0 L 11.441406 -11.945312 L 14.972656 0 L 19.429688 0 Z M 22.734375 -17.027344 "/></g></g></g><g fill="#000000" fill-opacity="1"><g transform="translate(850.153084, 679.490016)"><g><path d="M 10.765625 -6.511719 L 6.460938 -6.511719 L 8.613281 -12.570312 Z M 17.128906 0 L 10.214844 -17.027344 L 7.035156 -17.027344 L 0.125 0 L 4.15625 0 L 5.382812 -3.429688 L 11.867188 -3.429688 L 13.09375 0 Z M 17.128906 0 "/></g></g></g><g fill="#000000" fill-opacity="1"><g transform="translate(872.413254, 679.490016)"><g><path d="M 6.484375 0 L 10.242188 0 L 10.242188 -8.136719 L 16.527344 -17.027344 L 12.042969 -17.027344 L 8.363281 -11.144531 L 4.683594 -17.027344 L 0.199219 -17.027344 L 6.484375 -8.136719 Z M 6.484375 0 "/></g></g></g></svg>